<?xml version="1.0" encoding="UTF-8" standalone="no"?>
<!-- Generator: Adobe Illustrator 15.1.0, SVG Export Plug-In . SVG Version: 6.00 Build 0)  -->

<svg
   xmlns:dc="http://purl.org/dc/elements/1.1/"
   xmlns:cc="http://creativecommons.org/ns#"
   xmlns:rdf="http://www.w3.org/1999/02/22-rdf-syntax-ns#"
   xmlns:svg="http://www.w3.org/2000/svg"
   xmlns="http://www.w3.org/2000/svg"
   xmlns:sodipodi="http://sodipodi.sourceforge.net/DTD/sodipodi-0.dtd"
   xmlns:inkscape="http://www.inkscape.org/namespaces/inkscape"
   version="1.1"
   x="0px"
   y="0px"
   width="600.4267"
   height="236.76494"
   viewBox="0 0 600.42669 236.76493"
   enable-background="new 0 0 841.89 595.275"
   xml:space="preserve"
   id="svg2"
   inkscape:version="0.48.4 r9939"
   sodipodi:docname="fang_logo.svg"><metadata
   id="metadata291"><rdf:RDF><cc:Work
       rdf:about=""><dc:format>image/svg+xml</dc:format><dc:type
         rdf:resource="http://purl.org/dc/dcmitype/StillImage" /><dc:title></dc:title></cc:Work></rdf:RDF></metadata><defs
   id="defs289" /><sodipodi:namedview
   pagecolor="#ffffff"
   bordercolor="#666666"
   borderopacity="1"
   objecttolerance="10"
   gridtolerance="10"
   guidetolerance="10"
   inkscape:pageopacity="0"
   inkscape:pageshadow="2"
   inkscape:window-width="1599"
   inkscape:window-height="820"
   id="namedview287"
   showgrid="false"
   fit-margin-top="0"
   fit-margin-left="0"
   fit-margin-right="0"
   fit-margin-bottom="0"
   inkscape:zoom="1.3588473"
   inkscape:cx="300.21401"
   inkscape:cy="118.38243"
   inkscape:window-x="0"
   inkscape:window-y="30"
   inkscape:window-maximized="0"
   inkscape:current-layer="svg2" />

<g
   id="Background"
   transform="translate(-120.731,-179.25501)">
</g>
<g
   id="Guides"
   transform="translate(-120.731,-179.25501)">
</g>
<g
   id="Foreground"
   transform="translate(-120.731,-179.25501)">
</g>
<g
   id="Layer-1"
   transform="translate(-120.731,-179.25501)">
	<g
   id="g281">
		<path
   clip-rule="evenodd"
   d="m 579.736,403.958 c -13.875,-6.365 -21.034,-14.916 -21.034,-30.883 0,-5.252 0,-12.9 0,-12.9 -5.688,6.693 -13.292,10.728 -23.381,10.728 h -41.325 v -92.229 c 0,-4.66 -1.039,-6.811 -1.402,-7.197 -0.096,-0.102 -1.1,-0.62 -3.551,-0.62 h -19.459 c -2.383,0.372 -2.877,2.384 -2.877,5.284 0,20.742 0.139,71.545 0.139,72.056 l 0.062,22.576 -22.576,0.162 c 0,0 -13.986,0.1 -17.602,0.1 -6.604,0 -12.441,-1.641 -17.229,-4.626 -3.578,1.909 -7.829,4.019 -11.122,5.18 -2.609,0.92 -6.646,2.142 -11.598,2.142 -5.991,0 -20.817,-2.081 -29.054,-21.354 -0.896,-2.095 -2.068,-4.952 -3.38,-8.209 -4.792,4.704 -9.7,8.872 -14.649,12.428 -15.192,10.911 -30.226,16.216 -45.957,16.216 -1.56,0 -2.868,-0.049 -3.824,-0.085 l -0.848,-0.028 c -4.521,0 -20.658,-0.799 -36.202,-11.089 -11.154,-7.384 -24.033,-20.947 -28.627,-45.279 -2.274,0.381 -3.952,0.584 -7.309,0.584 h -24.783 v 21.793 c 0,18.452 -13.768,31.845 -32.735,31.845 H 120.731 V 255.245 c 0,-36.599 28.959,-75.99 88.149,-75.99 24.377,0 39.917,1.957 50.384,6.343 12.417,5.203 19.643,14.685 20.589,26.88 19.959,-8.376 44.53,-12.481 72.144,-11.987 29.949,0.544 55.494,6.753 74.26,17.808 15.629,-9.812 31.957,-12.589 60.268,-12.589 20.697,0 37.014,4.147 49.881,12.679 6.857,4.546 14.43,11.556 19.91,22.166 12.621,-16.381 33.486,-31.482 76.27,-31.482 28.656,0 63.146,15.501 79.467,68.817 12.598,41.149 15.578,77.982 -13.852,111.106 -25.155,28.313 -70.632,36.169 -118.465,14.962 z"
   id="path283"
   inkscape:connector-curvature="0"
   style="fill:#4c1f2a;fill-rule:evenodd" />
		<path
   clip-rule="evenodd"
   d="m 427.071,248.087 c 8.261,-11.175 21.531,-18.421 36.495,-18.421 h 32.29 c 25.049,0 45.354,20.306 45.354,45.354 v 17.394 l -0.021,47.782 c 0,6.709 -4.064,9.262 -9.088,9.262 h -15.596 v -69.553 c 0,-20 -10.986,-30.495 -27.631,-30.495 h -19.706 c -8.906,0 -25.306,6.949 -25.306,27.962 0,21.013 0.139,72.116 0.139,72.116 0,0 -13.857,0.101 -17.439,0.101 -4.253,0 -8.563,-1.158 -8.563,-10.025 v -48.412 -16.438 c 0,-23.103 -31.159,-30.906 -60.563,-33.668 -21.355,-2.006 -82.104,1.684 -87.746,53.915 -2.878,26.647 31.228,64.881 76.374,-7.281 2.503,-4.002 2.672,-4.197 8.96,-13.896 6.288,-9.699 16.222,-5.978 19.202,0.42 2.26,4.85 29.558,70.583 29.558,70.583 0,0 -9.003,5.197 -13.113,6.646 -4.11,1.449 -8.503,2.046 -12.256,-6.737 -4.316,-10.101 -15.047,-37.93 -16.131,-41.219 -0.865,-2.627 -2.02,-1.598 -3.288,0.215 -1.269,1.812 -13.521,19.845 -33.298,34.713 -31.59,23.749 -83.303,9.839 -80.684,-40.455 2.628,-50.436 45.138,-78.466 107.891,-74.106 35.281,2.452 58.022,7.456 74.168,24.115 l -0.002,0.128 z m 195.795,0.278 c -29.04,7.085 -38.62,28.062 -41.448,46.479 -4.102,26.708 31.09,66.073 76.321,-7.229 2.261,-3.664 2.625,-4.133 7.437,-11.546 -10.141,-19.645 -23.001,-31.858 -42.31,-27.704 z m -7.356,101.921 c -0.875,6.046 -2.098,14.529 -2.156,15.117 -0.092,0.92 -0.987,1.087 -1.477,0.288 -0.335,-0.548 -5.977,-9.072 -9.394,-14.411 -3.551,0.203 -47.968,-0.838 -45.772,-53.229 1.667,-39.777 33.148,-69.199 67.949,-70.965 37.821,-1.919 62.927,27.021 72.283,73.052 14.701,72.323 -30.406,94.84 -52.483,96.697 -25.81,2.171 -41.882,-3.988 -51.98,-7.276 0,0 -7.136,-2.366 -4.316,-10.115 2.892,-7.95 8.644,-0.048 47.035,-1.706 12.712,-0.549 51.517,-8.995 38.733,-74.406 -0.912,-2.523 -2.005,-1.497 -3.26,0.296 -0.871,1.244 -7.393,12.042 -17.268,22.931 -1.642,10.568 -5.438,33.573 -5.565,34.85 -0.161,1.627 -0.932,1.662 -1.789,0.235 -0.557,-0.926 -6.116,-12.315 -10.107,-20.892 -7.937,5.369 -14.863,8.227 -20.433,9.534 z M 257.172,226.048 c 0,0 -30.121,-4.16 -53.283,-2.377 -23.162,1.783 -33.339,14.121 -34.132,31.339 l -0.595,18.006 H 227.2 v 12.734 c 0,4.906 -2.202,8.447 -10.38,8.447 h -47.46 v 44.469 c 0,6.269 -3.87,9.168 -10.059,9.168 h -16.003 v -92.626 c 0,-24.254 19.021,-53.313 65.471,-53.313 46.451,0 48.402,7.772 48.402,13.328 v 10.825 z"
   id="path285"
   inkscape:connector-curvature="0"
   style="fill:#ffffff;fill-rule:evenodd" />
	</g>
</g>
</svg>