<?xml version="1.0" encoding="UTF-8" standalone="no"?>
<svg
   xmlns:dc="http://purl.org/dc/elements/1.1/"
   xmlns:cc="http://creativecommons.org/ns#"
   xmlns:rdf="http://www.w3.org/1999/02/22-rdf-syntax-ns#"
   xmlns:svg="http://www.w3.org/2000/svg"
   xmlns="http://www.w3.org/2000/svg"
   xmlns:sodipodi="http://sodipodi.sourceforge.net/DTD/sodipodi-0.dtd"
   xmlns:inkscape="http://www.inkscape.org/namespaces/inkscape"
   version="1.1"
   id="Layer_1"
   x="0px"
   y="0px"
   width="99"
   height="55.70615"
   viewBox="0 0 99 55.70615"
   enable-background="new 0 0 100 100"
   xml:space="preserve"
   inkscape:version="0.48.5 r10040"
   sodipodi:docname="icon_1490.svg"><metadata
   id="metadata9"><rdf:RDF><cc:Work
       rdf:about=""><dc:format>image/svg+xml</dc:format><dc:type
         rdf:resource="http://purl.org/dc/dcmitype/StillImage" /><dc:title></dc:title></cc:Work></rdf:RDF></metadata><defs
   id="defs7" /><sodipodi:namedview
   pagecolor="#ffffff"
   bordercolor="#666666"
   borderopacity="1"
   objecttolerance="10"
   gridtolerance="10"
   guidetolerance="10"
   inkscape:pageopacity="0"
   inkscape:pageshadow="2"
   inkscape:window-width="1227"
   inkscape:window-height="802"
   id="namedview5"
   showgrid="false"
   fit-margin-top="0"
   fit-margin-left="0"
   fit-margin-right="0"
   fit-margin-bottom="0"
   inkscape:zoom="4.72"
   inkscape:cx="33.769797"
   inkscape:cy="27.853075"
   inkscape:window-x="232"
   inkscape:window-y="129"
   inkscape:window-maximized="0"
   inkscape:current-layer="Layer_1" />
<path
   d="m 45.026,53.458653 c 4.396,-3.825 3.474,-8.347 8.317,-13.559 2.403,-2.586 17.358,-2.34 17.358,-2.34 0,0 12.967,-0.194 15.624,2.462 1.832,1.836 2.306,5.06 4.15,6.938 0.013,0.018 0.025,0.03 0.042,0.043 0.406,0.406 0.884,0.735 1.451,0.978 0.06,0.03 0.106,0.063 0.165,0.084 0.432,0.165 0.939,0.254 1.485,0.301 0.14,0.013 0.258,0.08 0.398,0.08 0.025,0 0.046,-0.013 0.072,-0.017 0.038,0.004 0.067,0.017 0.105,0.017 0.093,0 0.14,-0.071 0.225,-0.08 2.556,-0.217 4.582,-2.294 4.582,-4.904 l 0,-31.218 c 0,-2.6099995 -2.026,-4.6879995 -4.582,-4.9029995 -0.084,-0.009 -0.131,-0.081 -0.225,-0.081 -0.038,0 -0.067,0.013 -0.105,0.017 -0.026,-0.004 -0.047,-0.017 -0.072,-0.017 -0.14,0 -0.258,0.068 -0.398,0.081 -0.545,0.046 -1.053,0.135 -1.485,0.3 -0.059,0.021 -0.105,0.055 -0.165,0.085 -0.567,0.241 -1.045,0.571 -1.451,0.977 -0.017,0.013 -0.029,0.025 -0.042,0.042 -1.845,1.8779995 -2.318,5.1019995 -4.15,6.9379995 -2.657,2.657 -15.624,2.462 -15.624,2.462 0,0 -14.955,0.246 -17.358,-2.34 C 48.5,10.593653 49.422,6.0716535 45.026,2.2476535 41.912,-0.46034655 36.362,0.03565345 36.362,0.03565345 l 0,25.67099955 -22.621,0 -13.741,1.92 0,0.457 13.741,1.921 22.621,0 0,25.666 c 0,0 5.55,0.495 8.664,-2.212 z"
   id="path3"
   inkscape:connector-curvature="0"
   style="fill:#777777;fill-opacity:1" />
</svg>