<?xml version="1.0" encoding="UTF-8" standalone="no"?>
<svg
   xmlns:dc="http://purl.org/dc/elements/1.1/"
   xmlns:cc="http://creativecommons.org/ns#"
   xmlns:rdf="http://www.w3.org/1999/02/22-rdf-syntax-ns#"
   xmlns:svg="http://www.w3.org/2000/svg"
   xmlns="http://www.w3.org/2000/svg"
   xmlns:sodipodi="http://sodipodi.sourceforge.net/DTD/sodipodi-0.dtd"
   xmlns:inkscape="http://www.inkscape.org/namespaces/inkscape"
   version="1.1"
   x="0px"
   y="0px"
   width="100px"
   height="100px"
   viewBox="0 0 100 100"
   enable-background="new 0 0 100 100"
   xml:space="preserve"
   id="svg2"
   inkscape:version="0.48.4 r9939"
   sodipodi:docname="symbol_dark_reload.svg"><metadata
   id="metadata12"><rdf:RDF><cc:Work
       rdf:about=""><dc:format>image/svg+xml</dc:format><dc:type
         rdf:resource="http://purl.org/dc/dcmitype/StillImage" /><dc:title /></cc:Work></rdf:RDF></metadata><defs
   id="defs10" /><sodipodi:namedview
   pagecolor="#ffffff"
   bordercolor="#666666"
   borderopacity="1"
   objecttolerance="10"
   gridtolerance="10"
   guidetolerance="10"
   inkscape:pageopacity="0"
   inkscape:pageshadow="2"
   inkscape:window-width="640"
   inkscape:window-height="480"
   id="namedview8"
   showgrid="false"
   inkscape:zoom="2.36"
   inkscape:cx="50"
   inkscape:cy="50"
   inkscape:window-x="0"
   inkscape:window-y="0"
   inkscape:window-maximized="0"
   inkscape:current-layer="svg2" />
<g
   id="Captions"
   style="fill:#ffffff">
</g>
<g
   id="Your_Icon"
   style="fill:#ffffff">
	<path
   fill="#ffffff"
   d="M91.074,4.929c-3.576-0.319-6.732,2.323-7.051,5.899l-0.314,3.54C74.541,5.84,62.688,1.161,50.09,1.161   C22.84,1.161,0.67,23.33,0.67,50.58S22.84,100,50.09,100c18.83,0,35.77-10.464,44.207-27.309c1.607-3.21,0.311-7.115-2.9-8.724   c-3.209-1.604-7.113-0.31-8.723,2.9C76.453,79.285,63.969,86.999,50.09,86.999c-20.082,0-36.42-16.338-36.42-36.42   c0-20.081,16.338-36.419,36.42-36.419c9.377,0,18.193,3.52,24.977,9.926l-5.229-0.465c-3.562-0.325-6.73,2.323-7.051,5.898   c-0.316,3.576,2.324,6.732,5.9,7.051l19.424,1.726c0.191,0.018,0.383,0.025,0.574,0.025c1.52,0,2.998-0.532,4.172-1.517   c1.322-1.104,2.15-2.691,2.303-4.408l1.814-20.42C97.291,8.402,94.65,5.246,91.074,4.929z"
   id="path6"
   style="fill:#ffffff" />
</g>
</svg>