<?xml version="1.0" encoding="UTF-8" standalone="no"?>
<svg
   xmlns:dc="http://purl.org/dc/elements/1.1/"
   xmlns:cc="http://creativecommons.org/ns#"
   xmlns:rdf="http://www.w3.org/1999/02/22-rdf-syntax-ns#"
   xmlns:svg="http://www.w3.org/2000/svg"
   xmlns="http://www.w3.org/2000/svg"
   xmlns:sodipodi="http://sodipodi.sourceforge.net/DTD/sodipodi-0.dtd"
   xmlns:inkscape="http://www.inkscape.org/namespaces/inkscape"
   version="1.1"
   id="question-layer"
   x="0px"
   y="0px"
   width="64.540001"
   height="64.540001"
   viewBox="0 0 64.540002 64.540001"
   xml:space="preserve"
   inkscape:version="0.48.4 r9939"
   sodipodi:docname="symbol_dark_help.svg"><metadata
   id="metadata10"><rdf:RDF><cc:Work
       rdf:about=""><dc:format>image/svg+xml</dc:format><dc:type
         rdf:resource="http://purl.org/dc/dcmitype/StillImage" /></cc:Work></rdf:RDF></metadata><defs
   id="defs8" /><sodipodi:namedview
   pagecolor="#ffffff"
   bordercolor="#666666"
   borderopacity="1"
   objecttolerance="10"
   gridtolerance="10"
   guidetolerance="10"
   inkscape:pageopacity="0"
   inkscape:pageshadow="2"
   inkscape:window-width="1021"
   inkscape:window-height="567"
   id="namedview6"
   showgrid="false"
   fit-margin-top="0"
   fit-margin-left="0"
   fit-margin-right="0"
   fit-margin-bottom="0"
   inkscape:zoom="3.337544"
   inkscape:cx="-14.014771"
   inkscape:cy="45.711864"
   inkscape:window-x="589"
   inkscape:window-y="255"
   inkscape:window-maximized="0"
   inkscape:current-layer="question-layer" />
<rect
   id="frame_70_"
   style="fill:none"
   width="100"
   height="100"
   x="-28.209999"
   y="-18.459999" />
<path
   style="fill:#1d1d1b"
   d="m 24.346991,50.54 h 15 v 14 h -15 v -14 z m 27.658,-39.827 c -0.676,-1.9600002 -1.795,-3.7610002 -3.331,-5.3540002 -1.532,-1.589 -3.568,-2.896 -6.056,-3.886 -2.467,-0.97899999 -5.519,-1.47599999 -9.068,-1.47599999 -2.343,0 -4.566,0.265 -6.617,0.787 -2.03,0.52499999 -3.888,1.20599999 -5.522,2.02399999 -1.655,0.829 -3.139,1.768 -4.407,2.788 -1.275,1.027 -2.361,2.045 -3.184,3.064 -0.826,1.025 -2.263,2.8910002 -2.263,4.7570002 0,3.346 2.713,6.061 6.061,6.061 0.914,0 1.822,-0.124 2.555,-0.57 0.728,-0.441 1.646,-1.268 2.559,-2.245 1.137,-1.217 2.691,-1.974 4.22,-2.703 1.917,-0.914 3.956,-1.377 6.06,-1.377 1.877,0 3.269,0.449 4.136,1.333 0.891,0.91 1.322,1.854 1.322,2.889 0,0.511 -0.107,0.987 -0.328,1.446 -0.277,0.571 -0.631,1.115 -1.054,1.623 -0.449,0.542 -0.97,1.073 -1.55,1.582 -0.631,0.557 -1.248,1.088 -1.863,1.598 -1.334,1.12 -2.538,2.244 -3.578,3.339 -1.091,1.146 -2.03,2.385 -2.794,3.684 -0.783,1.334 -2.956,7.932 -2.956,10.074 v 2.389 h 15 v -2.389 c 0,-1.293 0.434,-5.123 0.975,-5.855 0.562,-0.771 1.203,-1.469 1.906,-2.078 0.747,-0.652 1.547,-1.279 2.389,-1.872 0.963,-0.696 1.938,-1.468 2.898,-2.296 1.02,-0.879 1.938,-1.87 2.734,-2.95 0.82,-1.111 1.488,-2.398 1.981,-3.824 0.5,-1.436 0.753,-3.123 0.753,-5.013 0.003,-1.779 -0.327,-3.645 -0.978,-5.55 z"
   id="path4"
   inkscape:connector-curvature="0" />
</svg>