<?xml version="1.0" encoding="UTF-8" standalone="no"?>
<svg
   xmlns:dc="http://purl.org/dc/elements/1.1/"
   xmlns:cc="http://creativecommons.org/ns#"
   xmlns:rdf="http://www.w3.org/1999/02/22-rdf-syntax-ns#"
   xmlns:svg="http://www.w3.org/2000/svg"
   xmlns="http://www.w3.org/2000/svg"
   xmlns:sodipodi="http://sodipodi.sourceforge.net/DTD/sodipodi-0.dtd"
   xmlns:inkscape="http://www.inkscape.org/namespaces/inkscape"
   version="1.1"
   x="0px"
   y="0px"
   viewBox="0 0 112.93511 92.928977"
   enable-background="new 0 0 100 100"
   xml:space="preserve"
   id="svg2"
   inkscape:version="0.48.5 r10040"
   width="100%"
   height="100%"
   sodipodi:docname="flag (original fang).svg"><metadata
     id="metadata12"><rdf:RDF><cc:Work
         rdf:about=""><dc:format>image/svg+xml</dc:format><dc:type
           rdf:resource="http://purl.org/dc/dcmitype/StillImage" /><dc:title /></cc:Work></rdf:RDF></metadata><defs
     id="defs10" /><sodipodi:namedview
     pagecolor="#ffffff"
     bordercolor="#666666"
     borderopacity="1"
     objecttolerance="10"
     gridtolerance="10"
     guidetolerance="10"
     inkscape:pageopacity="0"
     inkscape:pageshadow="2"
     inkscape:window-width="1920"
     inkscape:window-height="1028"
     id="namedview8"
     showgrid="false"
     fit-margin-top="0"
     fit-margin-left="0"
     fit-margin-right="0"
     fit-margin-bottom="0"
     inkscape:zoom="2.36"
     inkscape:cx="-79.745342"
     inkscape:cy="30.979756"
     inkscape:window-x="-8"
     inkscape:window-y="22"
     inkscape:window-maximized="1"
     inkscape:current-layer="svg2" /><g
     id="g4"
     transform="matrix(0.90630779,0.42261826,-0.42261826,0.90630779,32.51086,-4.4970809)"><path
       clip-rule="evenodd"
       d="m 62.875,37.847 c 3.87,1.936 8.102,2.906 12.458,2.906 3.746,0 7.616,-0.728 11.126,-2.299 v 14.873 c -3.995,1.938 -6.652,2.542 -11.126,2.542 -1.332,0 -2.664,-0.124 -3.989,-0.243 V 7.617 c 1.325,0 2.657,0.125 3.989,0.243 4.96,0 6.527,-0.361 11.126,-2.053 v 14.872 c -3.51,1.45 -7.38,2.296 -11.126,2.296 -4.956,0 -7.984,-0.725 -12.458,-2.9 -3.386,-1.574 -5.557,-2.178 -9.31,-2.178 -3.746,0 -6.042,0.604 -9.309,2.178 -3.989,1.936 -8.221,2.9 -12.577,2.9 -5.438,0 -10.883,-1.693 -15.601,-4.717 l 0.125,17.896 c 4.953,3.146 9.67,4.599 15.476,4.599 5.078,0 7.984,-0.728 12.459,-2.906 3.385,-1.568 5.681,-2.175 9.427,-2.175 3.753,0 5.924,0.607 9.31,2.175 M 43.049,53.326 c -3.628,1.695 -4.231,1.938 -8.223,2.418 V 7.617 c 3.624,-0.361 7.252,-1.329 10.52,-2.9 3.024,-1.45 4.959,-1.935 8.22,-1.935 v 48.126 c -3.747,0 -7.256,0.726 -10.517,2.418 m 1.09,2.418 c -4.475,2.178 -7.496,2.781 -12.459,2.781 -5.924,0 -10.759,-4.11 -15.719,-7.256 L 16.079,100 h -5.32 L 10.641,0 h 5.438 c 4.6,3.267 10.162,5.078 15.844,5.078 4.231,0 8.463,-0.964 12.216,-2.899 C 47.523,0.485 49.819,0 53.565,0 c 3.753,0 5.924,0.485 9.31,2.178 4.599,2.178 7.502,2.899 12.576,2.899 5.32,0 9.191,-1.089 13.908,-3.746 l -0.118,53.69 c -4.717,2.539 -8.47,3.504 -13.79,3.504 -5.074,0 -7.978,-0.604 -12.576,-2.781 -2.9,-1.45 -6.042,-2.176 -9.31,-2.176 -3.26,0 -6.527,0.726 -9.426,2.176"
       id="path6"
       inkscape:connector-curvature="0"
       style="fill-rule:evenodd" /></g></svg>